<?xml version="1.0" standalone="no"?>
<!DOCTYPE svg PUBLIC "-//W3C//DTD SVG 20010904//EN"
 "http://www.w3.org/TR/2001/REC-SVG-20010904/DTD/svg10.dtd">
<svg version="1.0" xmlns="http://www.w3.org/2000/svg"
 width="74.000000pt" height="74.000000pt" viewBox="0 0 74.000000 74.000000"
 preserveAspectRatio="xMidYMid meet">
<metadata>
Created by potrace 1.14, written by Peter Selinger 2001-2017
</metadata>
<g transform="translate(0.000000,74.000000) scale(0.100000,-0.100000)"
fill="#000000" stroke="none">
<path d="M285 711 c-94 -16 -207 -107 -255 -206 -21 -42 -24 -65 -24 -145 0
-84 3 -101 28 -148 15 -30 47 -74 72 -99 44 -43 132 -93 166 -93 16 0 16 3 -2
36 -17 30 -26 55 -29 86 -1 4 -10 9 -21 13 -32 10 -90 73 -111 121 -40 89 -13
228 58 302 15 16 46 39 68 50 37 19 56 23 137 36 70 11 187 -40 242 -104 57
-68 78 -126 77 -214 0 -108 -23 -169 -90 -240 -38 -41 -26 -39 21 3 84 74 130
239 97 342 -63 196 -228 294 -434 260z"/>
<path d="M402 578 c-12 -15 -8 -91 6 -128 5 -14 10 -28 10 -33 1 -32 15 -87
22 -87 11 0 16 19 19 72 2 50 -8 78 -42 115 -26 29 -8 38 51 24 23 -5 42 -6
42 -2 0 12 -43 28 -67 26 -25 -2 -31 10 -10 18 7 4 6 6 -4 6 -9 1 -21 -5 -27
-11z"/>
<path d="M273 568 c-13 -6 -23 -15 -23 -20 0 -5 4 -7 8 -4 16 10 92 24 87 16
-2 -4 -19 -10 -36 -14 -44 -8 -84 -40 -104 -82 -9 -19 -15 -38 -12 -40 2 -2
21 13 43 34 41 39 97 82 109 82 3 0 -10 -15 -29 -34 -45 -42 -66 -92 -65 -153
0 -51 0 -52 31 27 6 14 15 34 21 45 57 108 68 120 43 44 -30 -90 -41 -192 -27
-256 27 -123 80 -193 144 -193 32 0 74 18 50 21 -7 1 -17 2 -22 3 -5 0 -23 11
-40 24 -80 58 -120 271 -82 427 6 22 7 42 3 45 -4 3 -7 12 -7 20 0 19 -60 24
-92 8z"/>
<path d="M453 498 c24 -24 49 -52 55 -63 10 -18 11 -17 12 12 0 24 -8 38 -37
62 -21 17 -46 31 -56 31 -13 0 -7 -11 26 -42z"/>
</g>
</svg>
